<?xml version="1.0" encoding="utf-8"?>
<!-- Generator: Adobe Illustrator 26.3.1, SVG Export Plug-In . SVG Version: 6.00 Build 0)  -->
<svg version="1.1" id="Livello_1" xmlns="http://www.w3.org/2000/svg" xmlns:xlink="http://www.w3.org/1999/xlink" x="0px" y="0px"
	 viewBox="0 0 226.8 2921.7" style="enable-background:new 0 0 226.8 2921.7;" xml:space="preserve">
<style type="text/css">
	.st0{fill:url(#SVGID_1_);}
	.st1{fill:url(#SVGID_00000154401929183305072040000009232099206980017032_);}
	.st2{fill:url(#SVGID_00000043423676250899590930000009711523935711594625_);}
	.st3{fill:url(#SVGID_00000078005185206679967160000009635525336368860834_);}
	.st4{fill:url(#SVGID_00000006680272235401788570000014176591549805259965_);}
	.st5{fill:url(#SVGID_00000121990656487504926500000012561727925695066281_);}
	.st6{fill:url(#SVGID_00000032618447801059225630000005430094504767091903_);}
	.st7{fill:url(#SVGID_00000028286699387280841100000000946951821036540803_);}
	.st8{fill:url(#SVGID_00000136372564545557090630000006213661026827821460_);}
	.st9{fill:url(#SVGID_00000168830551956564982460000009549310951863461764_);}
</style>
<linearGradient id="SVGID_1_" gradientUnits="userSpaceOnUse" x1="297.77" y1="1794.5226" x2="297.77" y2="1404.7726" gradientTransform="matrix(1 0 0 -1 -184.35 2914.8953)">
	<stop  offset="0" style="stop-color:#D4EAE2"/>
	<stop  offset="0.11" style="stop-color:#D4EAE2;stop-opacity:0.98"/>
	<stop  offset="0.24" style="stop-color:#D4EAE2;stop-opacity:0.91"/>
	<stop  offset="0.38" style="stop-color:#D4EAE2;stop-opacity:0.81"/>
	<stop  offset="0.53" style="stop-color:#D4EAE2;stop-opacity:0.66"/>
	<stop  offset="0.69" style="stop-color:#D4EAE2;stop-opacity:0.47"/>
	<stop  offset="0.85" style="stop-color:#D4EAE2;stop-opacity:0.24"/>
	<stop  offset="1" style="stop-color:#D4EAE2;stop-opacity:0"/>
	<stop  offset="1" style="stop-color:#D4EAE2"/>
</linearGradient>
<path class="st0" d="M167.4,1464.6c39.6-34.4,59.4-83,59.4-145.6c0-62.6-19.8-111.1-59.4-145.6C127.9,1139,72,1121.8,0,1121.8v113.6
	c38.5,0,68.3,7.2,89.3,21.7c21,14.5,31.5,35.1,31.6,61.9c0,26.8-10.5,47.4-31.6,61.9c-21,14.5-50.8,21.7-89.3,21.7v113.6
	C72,1516.3,127.9,1499,167.4,1464.6z"/>
<linearGradient id="SVGID_00000046310004120763827000000012461589305644400550_" gradientUnits="userSpaceOnUse" x1="297.77" y1="1514.8525" x2="297.77" y2="1125.1025" gradientTransform="matrix(1 0 0 -1 -184.35 2914.8953)">
	<stop  offset="0" style="stop-color:#D4EAE2"/>
	<stop  offset="0.11" style="stop-color:#D4EAE2;stop-opacity:0.98"/>
	<stop  offset="0.24" style="stop-color:#D4EAE2;stop-opacity:0.91"/>
	<stop  offset="0.38" style="stop-color:#D4EAE2;stop-opacity:0.81"/>
	<stop  offset="0.53" style="stop-color:#D4EAE2;stop-opacity:0.66"/>
	<stop  offset="0.69" style="stop-color:#D4EAE2;stop-opacity:0.47"/>
	<stop  offset="0.85" style="stop-color:#D4EAE2;stop-opacity:0.24"/>
	<stop  offset="1" style="stop-color:#D4EAE2;stop-opacity:0"/>
	<stop  offset="1" style="stop-color:#D4EAE2"/>
</linearGradient>
<path style="fill:url(#SVGID_00000046310004120763827000000012461589305644400550_);" d="M167.4,1744.3
	c39.6-34.4,59.4-83,59.4-145.5c0-62.6-19.8-111.1-59.4-145.6c-39.6-34.4-95.4-51.7-167.4-51.7v113.6c38.5,0,68.3,7.2,89.3,21.7
	s31.5,35.1,31.6,61.9c0,26.8-10.5,47.4-31.6,61.9c-21,14.5-50.8,21.7-89.3,21.7v113.6C72,1795.9,127.9,1778.7,167.4,1744.3z"/>
<linearGradient id="SVGID_00000029023258850590265690000000221321812794843039_" gradientUnits="userSpaceOnUse" x1="297.77" y1="2074.5916" x2="297.77" y2="1684.8414" gradientTransform="matrix(1 0 0 -1 -184.35 2914.8953)">
	<stop  offset="0" style="stop-color:#D4EAE2"/>
	<stop  offset="0.11" style="stop-color:#D4EAE2;stop-opacity:0.98"/>
	<stop  offset="0.24" style="stop-color:#D4EAE2;stop-opacity:0.91"/>
	<stop  offset="0.38" style="stop-color:#D4EAE2;stop-opacity:0.81"/>
	<stop  offset="0.53" style="stop-color:#D4EAE2;stop-opacity:0.66"/>
	<stop  offset="0.69" style="stop-color:#D4EAE2;stop-opacity:0.47"/>
	<stop  offset="0.85" style="stop-color:#D4EAE2;stop-opacity:0.24"/>
	<stop  offset="1" style="stop-color:#D4EAE2;stop-opacity:0"/>
	<stop  offset="1" style="stop-color:#D4EAE2"/>
</linearGradient>
<path style="fill:url(#SVGID_00000029023258850590265690000000221321812794843039_);" d="M167.4,1184.5
	c39.6-34.4,59.4-83,59.4-145.6c0-62.6-19.8-111.1-59.4-145.6C127.9,859,72,841.7,0,841.7v113.6c38.5,0,68.3,7.2,89.3,21.7
	c21,14.5,31.5,35.1,31.6,61.9c0,26.8-10.5,47.4-31.6,61.9c-21,14.5-50.8,21.7-89.3,21.7v113.6C72,1236.2,127.9,1219,167.4,1184.5z"
	/>
<linearGradient id="SVGID_00000005252502059197567340000002757129967845404808_" gradientUnits="userSpaceOnUse" x1="297.77" y1="2354.7363" x2="297.77" y2="1964.9863" gradientTransform="matrix(1 0 0 -1 -184.35 2914.8953)">
	<stop  offset="0" style="stop-color:#D4EAE2"/>
	<stop  offset="0.11" style="stop-color:#D4EAE2;stop-opacity:0.98"/>
	<stop  offset="0.24" style="stop-color:#D4EAE2;stop-opacity:0.91"/>
	<stop  offset="0.38" style="stop-color:#D4EAE2;stop-opacity:0.81"/>
	<stop  offset="0.53" style="stop-color:#D4EAE2;stop-opacity:0.66"/>
	<stop  offset="0.69" style="stop-color:#D4EAE2;stop-opacity:0.47"/>
	<stop  offset="0.85" style="stop-color:#D4EAE2;stop-opacity:0.24"/>
	<stop  offset="1" style="stop-color:#D4EAE2;stop-opacity:0"/>
	<stop  offset="1" style="stop-color:#D4EAE2"/>
</linearGradient>
<path style="fill:url(#SVGID_00000005252502059197567340000002757129967845404808_);" d="M167.4,904.4c39.6-34.4,59.4-83,59.4-145.5
	c0-62.6-19.8-111.1-59.4-145.6C127.9,578.8,72,561.6,0,561.6v113.6c38.5,0,68.3,7.2,89.3,21.7c21,14.5,31.5,35.1,31.6,61.9
	c0,26.8-10.5,47.4-31.6,61.9S38.5,842.5,0,842.5v113.6C72,956.1,127.9,938.8,167.4,904.4z"/>
<linearGradient id="SVGID_00000023273748528113795620000003752351537461316510_" gradientUnits="userSpaceOnUse" x1="297.77" y1="2636.0266" x2="297.77" y2="2246.2766" gradientTransform="matrix(1 0 0 -1 -184.35 2914.8953)">
	<stop  offset="0" style="stop-color:#D4EAE2"/>
	<stop  offset="0.11" style="stop-color:#D4EAE2;stop-opacity:0.98"/>
	<stop  offset="0.24" style="stop-color:#D4EAE2;stop-opacity:0.91"/>
	<stop  offset="0.38" style="stop-color:#D4EAE2;stop-opacity:0.81"/>
	<stop  offset="0.53" style="stop-color:#D4EAE2;stop-opacity:0.66"/>
	<stop  offset="0.69" style="stop-color:#D4EAE2;stop-opacity:0.47"/>
	<stop  offset="0.85" style="stop-color:#D4EAE2;stop-opacity:0.24"/>
	<stop  offset="1" style="stop-color:#D4EAE2;stop-opacity:0"/>
	<stop  offset="1" style="stop-color:#D4EAE2"/>
</linearGradient>
<path style="fill:url(#SVGID_00000023273748528113795620000003752351537461316510_);" d="M167.4,623.1c39.6-34.4,59.4-83,59.4-145.5
	c0-62.6-19.8-111.1-59.4-145.6C127.9,297.5,72,280.3,0,280.3v113.6c38.5,0,68.3,7.2,89.3,21.7s31.5,35.1,31.6,61.9
	c0,26.8-10.5,47.4-31.6,61.9S38.5,561.2,0,561.2v113.6C72,674.8,127.9,657.5,167.4,623.1z"/>
<linearGradient id="SVGID_00000005255723685535904020000016181988712525915009_" gradientUnits="userSpaceOnUse" x1="297.77" y1="2916.3352" x2="297.77" y2="2526.5852" gradientTransform="matrix(1 0 0 -1 -184.35 2914.8953)">
	<stop  offset="0" style="stop-color:#D4EAE2"/>
	<stop  offset="0.11" style="stop-color:#D4EAE2;stop-opacity:0.98"/>
	<stop  offset="0.24" style="stop-color:#D4EAE2;stop-opacity:0.91"/>
	<stop  offset="0.38" style="stop-color:#D4EAE2;stop-opacity:0.81"/>
	<stop  offset="0.53" style="stop-color:#D4EAE2;stop-opacity:0.66"/>
	<stop  offset="0.69" style="stop-color:#D4EAE2;stop-opacity:0.47"/>
	<stop  offset="0.85" style="stop-color:#D4EAE2;stop-opacity:0.24"/>
	<stop  offset="1" style="stop-color:#D4EAE2;stop-opacity:0"/>
	<stop  offset="1" style="stop-color:#D4EAE2"/>
</linearGradient>
<path style="fill:url(#SVGID_00000005255723685535904020000016181988712525915009_);" d="M167.4,342.8c39.6-34.4,59.4-83,59.4-145.5
	c0-62.6-19.8-111.1-59.4-145.6C127.9,17.2,72,0,0,0v113.6c38.5,0,68.3,7.2,89.3,21.7s31.5,35.1,31.6,61.9
	c0,26.8-10.5,47.4-31.6,61.9S38.5,280.9,0,280.9v113.6C72,394.5,127.9,377.2,167.4,342.8z"/>
<linearGradient id="SVGID_00000168827230877294405220000003950158432044608683_" gradientUnits="userSpaceOnUse" x1="297.77" y1="1233.5022" x2="297.77" y2="843.7523" gradientTransform="matrix(1 0 0 -1 -184.35 2914.8953)">
	<stop  offset="0" style="stop-color:#D4EAE2"/>
	<stop  offset="0.11" style="stop-color:#D4EAE2;stop-opacity:0.98"/>
	<stop  offset="0.24" style="stop-color:#D4EAE2;stop-opacity:0.91"/>
	<stop  offset="0.38" style="stop-color:#D4EAE2;stop-opacity:0.81"/>
	<stop  offset="0.53" style="stop-color:#D4EAE2;stop-opacity:0.66"/>
	<stop  offset="0.69" style="stop-color:#D4EAE2;stop-opacity:0.47"/>
	<stop  offset="0.85" style="stop-color:#D4EAE2;stop-opacity:0.24"/>
	<stop  offset="1" style="stop-color:#D4EAE2;stop-opacity:0"/>
	<stop  offset="1" style="stop-color:#D4EAE2"/>
</linearGradient>
<path style="fill:url(#SVGID_00000168827230877294405220000003950158432044608683_);" d="M167.4,2025.6
	c39.6-34.4,59.4-83,59.4-145.5c0-62.6-19.8-111.1-59.4-145.6c-39.6-34.4-95.4-51.7-167.4-51.7v113.6c38.5,0,68.3,7.2,89.3,21.7
	s31.5,35.1,31.6,61.9c0,26.8-10.5,47.4-31.6,61.9c-21,14.5-50.8,21.7-89.3,21.7v113.6C72,2077.3,127.9,2060.1,167.4,2025.6z"/>
<linearGradient id="SVGID_00000111902103245732731400000005831472022725660078_" gradientUnits="userSpaceOnUse" x1="297.77" y1="952.0483" x2="297.77" y2="562.2983" gradientTransform="matrix(1 0 0 -1 -184.35 2914.8953)">
	<stop  offset="0" style="stop-color:#D4EAE2"/>
	<stop  offset="0.11" style="stop-color:#D4EAE2;stop-opacity:0.98"/>
	<stop  offset="0.24" style="stop-color:#D4EAE2;stop-opacity:0.91"/>
	<stop  offset="0.38" style="stop-color:#D4EAE2;stop-opacity:0.81"/>
	<stop  offset="0.53" style="stop-color:#D4EAE2;stop-opacity:0.66"/>
	<stop  offset="0.69" style="stop-color:#D4EAE2;stop-opacity:0.47"/>
	<stop  offset="0.85" style="stop-color:#D4EAE2;stop-opacity:0.24"/>
	<stop  offset="1" style="stop-color:#D4EAE2;stop-opacity:0"/>
	<stop  offset="1" style="stop-color:#D4EAE2"/>
</linearGradient>
<path style="fill:url(#SVGID_00000111902103245732731400000005831472022725660078_);" d="M167.4,2307.1
	c39.6-34.4,59.4-83,59.4-145.6c0-62.6-19.8-111.1-59.4-145.6c-39.6-34.4-95.4-51.7-167.4-51.7v113.6c38.5,0,68.3,7.2,89.3,21.7
	s31.5,35.1,31.6,61.9c0,26.8-10.5,47.4-31.6,61.9s-50.8,21.7-89.3,21.7v113.6C72,2358.8,127.9,2341.5,167.4,2307.1z"/>
<linearGradient id="SVGID_00000055695977617827544860000016466571715406459812_" gradientUnits="userSpaceOnUse" x1="297.77" y1="670.5943" x2="297.77" y2="280.8443" gradientTransform="matrix(1 0 0 -1 -184.35 2914.8953)">
	<stop  offset="0" style="stop-color:#D4EAE2"/>
	<stop  offset="0.11" style="stop-color:#D4EAE2;stop-opacity:0.98"/>
	<stop  offset="0.24" style="stop-color:#D4EAE2;stop-opacity:0.91"/>
	<stop  offset="0.38" style="stop-color:#D4EAE2;stop-opacity:0.81"/>
	<stop  offset="0.53" style="stop-color:#D4EAE2;stop-opacity:0.66"/>
	<stop  offset="0.69" style="stop-color:#D4EAE2;stop-opacity:0.47"/>
	<stop  offset="0.85" style="stop-color:#D4EAE2;stop-opacity:0.24"/>
	<stop  offset="1" style="stop-color:#D4EAE2;stop-opacity:0"/>
	<stop  offset="1" style="stop-color:#D4EAE2"/>
</linearGradient>
<path style="fill:url(#SVGID_00000055695977617827544860000016466571715406459812_);" d="M167.4,2588.5
	c39.6-34.4,59.4-83,59.4-145.6c0-62.6-19.8-111.1-59.4-145.6C127.9,2263,72,2245.7,0,2245.7v113.6c38.5,0,68.3,7.2,89.3,21.7
	c21,14.5,31.5,35.1,31.6,61.9c0,26.8-10.5,47.4-31.6,61.9c-21,14.5-50.8,21.7-89.3,21.7v113.6C72,2640.2,127.9,2623,167.4,2588.5z"
	/>
<linearGradient id="SVGID_00000008831872579222901260000013800254568878507695_" gradientUnits="userSpaceOnUse" x1="297.77" y1="389.1403" x2="297.77" y2="-0.6097" gradientTransform="matrix(1 0 0 -1 -184.35 2914.8953)">
	<stop  offset="0" style="stop-color:#D4EAE2"/>
	<stop  offset="0.11" style="stop-color:#D4EAE2;stop-opacity:0.98"/>
	<stop  offset="0.24" style="stop-color:#D4EAE2;stop-opacity:0.91"/>
	<stop  offset="0.38" style="stop-color:#D4EAE2;stop-opacity:0.81"/>
	<stop  offset="0.53" style="stop-color:#D4EAE2;stop-opacity:0.66"/>
	<stop  offset="0.69" style="stop-color:#D4EAE2;stop-opacity:0.47"/>
	<stop  offset="0.85" style="stop-color:#D4EAE2;stop-opacity:0.24"/>
	<stop  offset="1" style="stop-color:#D4EAE2;stop-opacity:0"/>
	<stop  offset="1" style="stop-color:#D4EAE2"/>
</linearGradient>
<path style="fill:url(#SVGID_00000008831872579222901260000013800254568878507695_);" d="M167.4,2870c39.6-34.4,59.4-83,59.4-145.6
	c0-62.6-19.8-111.1-59.4-145.6c-39.6-34.4-95.4-51.7-167.4-51.7v113.6c38.5,0,68.3,7.2,89.3,21.7s31.5,35.1,31.6,61.9
	c0,26.8-10.5,47.4-31.6,61.9s-50.8,21.7-89.3,21.7v113.6C72,2921.7,127.9,2904.4,167.4,2870z"/>
</svg>
