<svg id="Livello_1" data-name="Livello 1" xmlns="http://www.w3.org/2000/svg" xmlns:xlink="http://www.w3.org/1999/xlink" viewBox="0 0 226.84 841.89"><defs><style>.cls-1{fill:url(#Dégradé_sans_nom_27);}.cls-2{fill:url(#Dégradé_sans_nom_27-2);}.cls-3{fill:url(#Dégradé_sans_nom_27-3);}.cls-4{fill:url(#Dégradé_sans_nom_27-4);}</style><linearGradient id="Dégradé_sans_nom_27" x1="297.77" y1="-0.4" x2="297.77" y2="194.48" gradientUnits="userSpaceOnUse"><stop offset="0" stop-color="#d4eae2"/><stop offset="0.11" stop-color="#d4eae2" stop-opacity="0.98"/><stop offset="0.24" stop-color="#d4eae2" stop-opacity="0.91"/><stop offset="0.38" stop-color="#d4eae2" stop-opacity="0.81"/><stop offset="0.53" stop-color="#d4eae2" stop-opacity="0.66"/><stop offset="0.69" stop-color="#d4eae2" stop-opacity="0.47"/><stop offset="0.85" stop-color="#d4eae2" stop-opacity="0.24"/><stop offset="1" stop-color="#d4eae2" stop-opacity="0"/><stop offset="1" stop-color="#d4eae2"/></linearGradient><linearGradient id="Dégradé_sans_nom_27-2" x1="297.77" y1="84.09" x2="297.77" y2="473.84" xlink:href="#Dégradé_sans_nom_27"/><linearGradient id="Dégradé_sans_nom_27-3" x1="297.77" y1="363.76" x2="297.77" y2="753.51" xlink:href="#Dégradé_sans_nom_27"/><linearGradient id="Dégradé_sans_nom_27-4" x1="297.77" y1="644.28" x2="297.77" y2="891.76" xlink:href="#Dégradé_sans_nom_27"/></defs><title>Helix</title><path class="cls-1" d="M411.19.33q0,93.87-59.39,145.55T184.35,197.54V84q57.75,0,89.29-21.73T305.2.33Z" transform="translate(-184.35 -0.33)"/><path class="cls-2" d="M351.8,428.3q59.38-51.66,59.39-145.55T351.8,137.19Q292.41,85.53,184.35,85.53V199.11q57.75,0,89.29,21.73t31.56,61.91q0,40.17-31.56,61.91t-89.29,21.73V480Q292.41,480,351.8,428.3Z" transform="translate(-184.35 -0.33)"/><path class="cls-3" d="M351.8,708q59.38-51.66,59.39-145.55T351.8,416.87q-59.39-51.66-167.45-51.66V478.78q57.75,0,89.29,21.73t31.56,61.91q0,40.17-31.56,61.91t-89.29,21.73V759.63Q292.41,759.63,351.8,708Z" transform="translate(-184.35 -0.33)"/><path class="cls-4" d="M411.19,842.22q0-93.88-59.39-145.56T184.35,645V758.57q57.75,0,89.29,21.73t31.56,61.92Z" transform="translate(-184.35 -0.33)"/></svg>