<?xml version="1.0" encoding="UTF-8"?>
<svg id="background" xmlns="http://www.w3.org/2000/svg" xmlns:xlink="http://www.w3.org/1999/xlink" viewBox="0 0 915 343">
  <defs>
    <style>
      .cls-1 {
        fill: url(#Dégradé_sans_nom_2-2);
      }

      .cls-2 {
        fill: url(#Dégradé_sans_nom_2);
      }

      .cls-3 {
        fill: url(#Dégradé_sans_nom_2-4);
      }

      .cls-4 {
        fill: url(#Dégradé_sans_nom_2-3);
      }

      .cls-5 {
        fill: url(#Dégradé_sans_nom_3);
      }

      .cls-6 {
        fill: #36174c;
      }
    </style>
    <linearGradient id="Dégradé_sans_nom_2" data-name="Dégradé sans nom 2" x1="46.11" y1=".06" x2="46.11" y2="79.29" gradientUnits="userSpaceOnUse">
      <stop offset="0" stop-color="#99f"/>
      <stop offset=".1" stop-color="#99f" stop-opacity=".98"/>
      <stop offset=".22" stop-color="#99f" stop-opacity=".92"/>
      <stop offset=".36" stop-color="#99f" stop-opacity=".82"/>
      <stop offset=".5" stop-color="#99f" stop-opacity=".69"/>
      <stop offset=".65" stop-color="#99f" stop-opacity=".51"/>
      <stop offset=".81" stop-color="#99f" stop-opacity=".3"/>
      <stop offset=".97" stop-color="#99f" stop-opacity=".05"/>
      <stop offset="1" stop-color="#99f" stop-opacity="0"/>
      <stop offset="1" stop-color="#99f"/>
    </linearGradient>
    <linearGradient id="Dégradé_sans_nom_2-2" data-name="Dégradé sans nom 2" x1="46.11" y1="34.41" x2="46.11" y2="192.87" xlink:href="#Dégradé_sans_nom_2"/>
    <linearGradient id="Dégradé_sans_nom_2-3" data-name="Dégradé sans nom 2" x1="46.11" y1="148.12" x2="46.11" y2="306.58" xlink:href="#Dégradé_sans_nom_2"/>
    <linearGradient id="Dégradé_sans_nom_2-4" data-name="Dégradé sans nom 2" x1="46.11" y1="262.17" x2="46.11" y2="362.79" xlink:href="#Dégradé_sans_nom_2"/>
    <linearGradient id="Dégradé_sans_nom_3" data-name="Dégradé sans nom 3" x1="774.37" y1="111.73" x2="717.13" y2="190.06" gradientUnits="userSpaceOnUse">
      <stop offset=".25" stop-color="#99f"/>
      <stop offset=".35" stop-color="#99f" stop-opacity=".99"/>
      <stop offset=".44" stop-color="#99f" stop-opacity=".95"/>
      <stop offset=".51" stop-color="#99f" stop-opacity=".88"/>
      <stop offset=".58" stop-color="#99f" stop-opacity=".78"/>
      <stop offset=".65" stop-color="#99f" stop-opacity=".66"/>
      <stop offset=".72" stop-color="#99f" stop-opacity=".51"/>
      <stop offset=".79" stop-color="#99f" stop-opacity=".33"/>
      <stop offset=".85" stop-color="#99f" stop-opacity=".12"/>
      <stop offset=".89" stop-color="#99f" stop-opacity="0"/>
    </linearGradient>
  </defs>
  <g>
    <path class="cls-2" d="m92.23.35c0,25.45-8.05,45.18-24.15,59.18-16.1,14-38.79,21-68.08,21v-46.18c15.65,0,27.75-2.95,36.3-8.83,8.55-5.89,12.83-14.28,12.83-25.17h43.09Z"/>
    <path class="cls-1" d="m68.08,174.36c16.1-14,24.15-33.73,24.15-59.18s-8.05-45.18-24.15-59.18C51.98,42,29.29,35,0,35v46.18c15.65,0,27.75,2.95,36.3,8.84,8.55,5.89,12.83,14.28,12.83,25.17s-4.28,19.28-12.83,25.17c-8.55,5.89-20.65,8.83-36.3,8.83v46.18c29.29,0,51.98-7,68.08-21Z"/>
    <path class="cls-4" d="m68.08,288.07c16.1-14,24.15-33.73,24.15-59.18s-8.05-45.18-24.15-59.18c-16.1-14-38.79-21-68.08-21v46.18c15.65,0,27.75,2.95,36.3,8.84,8.55,5.89,12.83,14.28,12.83,25.17s-4.28,19.28-12.83,25.17c-8.55,5.89-20.65,8.83-36.3,8.83v46.18c29.29,0,51.98-7,68.08-21Z"/>
    <path class="cls-3" d="m92.23,342.65c0-25.45-8.05-45.18-24.15-59.18-16.1-14-38.79-21-68.08-21v46.18c15.65,0,27.75,2.95,36.3,8.84,8.55,5.89,12.83,14.28,12.83,25.17h43.09Z"/>
  </g>
  <path class="cls-5" d="m719.21,148.85c9.9,0,17.55-1.87,22.96-5.62,5.41-3.75,8.11-9.09,8.11-16.02h27.26c0,16.19-5.09,28.74-15.27,37.65-10.18,8.91-24.54,13.36-43.06,13.36v-29.38Z"/>
  <g>
    <path class="cls-6" d="m138.17,148.8v-23.96h39.48v23.96h-39.48Zm5.75-77.63v-23.96h57.69v23.96h-57.69Zm43.6-37.66c-4.92,0-8.91-1.53-11.98-4.6-3.07-3.07-4.6-7.06-4.6-11.98s1.53-8.91,4.6-11.98c3.07-3.07,7.06-4.6,11.98-4.6s8.91,1.53,11.98,4.6c3.07,3.07,4.6,7.06,4.6,11.98s-1.53,8.91-4.6,11.98c-3.07,3.07-7.06,4.6-11.98,4.6Zm-11.79,115.29V52.97h25.88v95.83h-25.88Zm23.96,0v-23.96h32.01v23.96h-32.01Z"/>
    <path class="cls-6" d="m253.94,148.8V47.22h23.19l2.78,21.47v80.12h-25.97Zm60.09,0v-59.71c0-6.13-1.26-10.86-3.79-14.18-2.52-3.32-6.12-4.98-10.78-4.98-13.03,0-19.55,9.39-19.55,28.18l-5.94-32.49h8.43c.96-6.83,3.29-11.93,7-15.29,3.7-3.35,9.33-5.03,16.87-5.03,10.73,0,19.04,3.26,24.92,9.78,5.88,6.52,8.82,15.72,8.82,27.6v66.13h-25.97Z"/>
    <path class="cls-6" d="m368.94,148.8V47.22h23.19l2.78,21.47v80.12h-25.97Zm60.09,0v-59.71c0-6.13-1.26-10.86-3.79-14.18-2.52-3.32-6.12-4.98-10.78-4.98-13.03,0-19.55,9.39-19.55,28.18l-5.94-32.49h8.43c.96-6.83,3.29-11.93,7-15.29,3.7-3.35,9.33-5.03,16.87-5.03,10.73,0,19.04,3.26,24.92,9.78,5.88,6.52,8.82,15.72,8.82,27.6v66.13h-25.97Z"/>
    <path class="cls-6" d="m526.97,150.72c-14.63,0-25.97-4.6-34.02-13.8-8.05-9.2-12.08-22.17-12.08-38.91s4.03-29.79,12.08-38.96c8.05-9.17,19.39-13.75,34.02-13.75s25.97,4.58,34.02,13.75c8.05,9.17,12.08,22.15,12.08,38.96s-4.03,29.71-12.08,38.91c-8.05,9.2-19.39,13.8-34.02,13.8Zm0-24.63c6.26,0,11.08-2.44,14.47-7.33,3.39-4.89,5.08-11.8,5.08-20.75s-1.69-15.94-5.08-20.8c-3.39-4.85-8.21-7.28-14.47-7.28s-11.01,2.43-14.42,7.28c-3.42,4.86-5.13,11.79-5.13,20.8s1.71,15.86,5.13,20.75c3.42,4.89,8.22,7.33,14.42,7.33Z"/>
    <path class="cls-6" d="m138.93,342.65v-145.67h24.05l1.92,21.47v124.2h-25.97Zm53.09-42.17c-7.09,0-12.78-1.69-17.06-5.08-4.28-3.39-6.93-8.47-7.95-15.24h-9.01l6.9-32.3c0,9.84,1.47,17,4.41,21.47,2.94,4.47,8.08,6.71,15.43,6.71,6.77,0,11.9-2.36,15.38-7.09,3.48-4.73,5.22-11.76,5.22-21.08s-1.79-15.99-5.37-20.94c-3.58-4.95-8.66-7.43-15.24-7.43s-11.53,2.27-14.85,6.8c-3.32,4.54-4.98,11.73-4.98,21.56l-5.94-32.49h7.48c1.21-6.83,3.82-11.93,7.81-15.29,3.99-3.35,9.85-5.03,17.59-5.03,12.71,0,22.57,4.6,29.57,13.8,6.99,9.2,10.49,22.2,10.49,39.01s-3.5,29.93-10.49,39c-7,9.07-16.79,13.61-29.37,13.61Z"/>
    <path class="cls-6" d="m245.5,298.56v-22.23h71.11v22.23h-71.11Zm3.83-79.35v-22.23h38.33l1.92,22.23h-40.25Zm17.63,79.35v-101.58h22.04l3.83,29.13v72.45h-25.88Zm25.88-43.7l-5.94-34.98h8.72c1.02-16.55,9.68-24.82,25.97-24.82,9.65,0,17.04,3.54,22.19,10.64,5.14,7.09,7.72,17.31,7.72,30.67h-25.88c0-6-1.1-10.32-3.31-12.94-2.2-2.62-5.73-3.93-10.59-3.93-6.33,0-11.05,3.07-14.18,9.2-3.13,6.13-4.7,14.85-4.7,26.16Z"/>
    <path class="cls-6" d="m411.97,300.48c-14.63,0-25.97-4.6-34.02-13.8-8.05-9.2-12.08-22.17-12.08-38.91s4.03-29.79,12.08-38.96c8.05-9.17,19.39-13.75,34.02-13.75s25.97,4.58,34.02,13.75c8.05,9.17,12.08,22.15,12.08,38.96s-4.03,29.71-12.08,38.91c-8.05,9.2-19.39,13.8-34.02,13.8Zm0-24.63c6.26,0,11.08-2.44,14.47-7.33,3.39-4.89,5.08-11.8,5.08-20.75s-1.69-15.94-5.08-20.8c-3.39-4.85-8.21-7.28-14.47-7.28s-11.01,2.43-14.42,7.28c-3.42,4.86-5.13,11.79-5.13,20.8s1.71,15.86,5.13,20.75c3.42,4.89,8.22,7.33,14.42,7.33Z"/>
    <path class="cls-6" d="m498.89,196.98h-24.34v23.86h24.34v35.36c0,15.46,3.9,26.71,11.69,33.73,7.79,7.03,20.44,10.54,37.95,10.54,4.54,0,8.8-.19,12.79-.58,3.99-.38,8.1-.96,12.32-1.72l-2.3-24.25c-4.28.57-8.1,1.04-11.45,1.39-3.35.35-6.5.53-9.44.53-9.14,0-15.7-1.76-19.69-5.27-3.99-3.51-5.99-9.13-5.99-16.87v-32.87h45.04v-23.86h-45.04v-23.55c-10.19-.25-18.75-2.22-25.87-5.13v28.68Z"/>
    <path class="cls-6" d="m650.02,300.48c-17.57,0-31.15-4.55-40.73-13.66-9.58-9.11-14.38-22.19-14.38-39.24s4.07-29.52,12.22-38.72c8.15-9.2,19.63-13.8,34.45-13.8s25.72,4.25,33.64,12.74c7.92,8.5,11.88,20.86,11.88,37.09,0,4.6-.19,8.98-.58,13.13h-74.56v-18.02h49.64c0-6.83-1.74-12.07-5.22-15.72-3.48-3.64-8.35-5.46-14.61-5.46-6.77,0-12.03,2.41-15.76,7.24-3.74,4.82-5.61,11.68-5.61,20.56,0,9.58,2.76,16.87,8.29,21.85,5.52,4.98,13.4,7.48,23.62,7.48,4.6,0,9.14-.24,13.61-.72,4.47-.48,9.04-1.13,13.7-1.96l2.49,24.53c-6.52,1.15-12.46,1.88-17.83,2.21-5.37.32-10.13.48-14.28.48Z"/>
    <path class="cls-6" d="m713.17,298.56v-23.96h39.48v23.96h-39.48Zm5.75-77.63v-23.96h57.69v23.96h-57.69Zm31.82,77.63v-95.83h25.88v95.83h-25.88Zm23.96,0v-23.96h32.01v23.96h-32.01Z"/>
    <path class="cls-6" d="m828.94,298.56v-101.58h23.19l2.78,21.47v80.12h-25.97Zm60.09,0v-59.71c0-6.13-1.26-10.86-3.79-14.18-2.52-3.32-6.12-4.98-10.78-4.98-13.03,0-19.55,9.39-19.55,28.18l-5.94-32.49h8.43c.96-6.83,3.29-11.93,7-15.29,3.7-3.35,9.33-5.03,16.87-5.03,10.73,0,19.04,3.26,24.92,9.78,5.88,6.52,8.82,15.72,8.82,27.6v66.13h-25.97Z"/>
  </g>
</svg>